{
  "accessors": [
    {
      "bufferView": 2,
      "componentType": 5126,
      "count": 15292,
      "max": [
        4.468098163604736,
        1.0249040126800537,
        13.489263534545898
      ],
      "min": [
        -4.468098163604736,
        -1.6693830490112305,
        0.0
      ],
      "type": "VEC3"
    },
    {
      "bufferView": 2,
      "byteOffset": 183504,
      "componentType": 5126,
      "count": 15292,
      "max": [
        0.9999854564666748,
        0.9999704957008362,
        0.9994906187057495
      ],
      "min": [
        -0.9999854564666748,
        -0.9999858736991882,
        -0.9999996423721313
      ],
      "type": "VEC3"
    },
    {
      "bufferView": 3,
      "componentType": 5126,
      "count": 15292,
      "max": [
        1.0,
        0.9998790621757507,
        0.9998697638511658,
        1.0
      ],
      "min": [
        -0.9999997615814209,
        -0.9998887777328491,
        -0.9988162517547607,
        -1.0
      ],
      "type": "VEC4"
    },
    {
      "bufferView": 1,
      "componentType": 5126,
      "count": 15292,
      "max": [
        0.9942600131034851,
        0.9985929727554321
      ],
      "min": [
        0.0014009999576956034,
        0.0014230000087991357
      ],
      "type": "VEC2"
    },
    {
      "bufferView": 0,
      "componentType": 5125,
      "count": 87336,
      "type": "SCALAR"
    }
  ],
  "asset": {
    "extras": {
      "author": "Hamed_Ghadirian (https://sketchfab.com/hamed._.ghadirian)",
      "license": "CC-BY-4.0 (http://creativecommons.org/licenses/by/4.0/)",
      "source": "https://sketchfab.com/3d-models/squid-game-soldier-9e3a5d1d13324bdc9e9dc5a4c384d978",
      "title": "Squid Game Soldier"
    },
    "generator": "Sketchfab-12.6.0",
    "version": "2.0"
  },
  "bufferViews": [
    {
      "buffer": 0,
      "byteLength": 349344,
      "name": "floatBufferViews",
      "target": 34963
    },
    {
      "buffer": 0,
      "byteLength": 122336,
      "byteOffset": 349344,
      "byteStride": 8,
      "name": "floatBufferViews",
      "target": 34962
    },
    {
      "buffer": 0,
      "byteLength": 367008,
      "byteOffset": 471680,
      "byteStride": 12,
      "name": "floatBufferViews",
      "target": 34962
    },
    {
      "buffer": 0,
      "byteLength": 244672,
      "byteOffset": 838688,
      "byteStride": 16,
      "name": "floatBufferViews",
      "target": 34962
    }
  ],
  "buffers": [
    {
      "byteLength": 1083360,
      "uri": "scene.bin"
    }
  ],
  "images": [
    {
      "uri": "textures/Badguys_Squid_Game_baseColor.jpeg"
    },
    {
      "uri": "textures/Badguys_Squid_Game_metallicRoughness.png"
    },
    {
      "uri": "textures/Badguys_Squid_Game_normal.png"
    }
  ],
  "materials": [
    {
      "doubleSided": true,
      "name": "Badguys_Squid_Game",
      "normalTexture": {
        "index": 2
      },
      "pbrMetallicRoughness": {
        "baseColorTexture": {
          "index": 0
        },
        "metallicRoughnessTexture": {
          "index": 1
        }
      }
    }
  ],
  "meshes": [
    {
      "name": "defaultMaterial",
      "primitives": [
        {
          "attributes": {
            "NORMAL": 1,
            "POSITION": 0,
            "TANGENT": 2,
            "TEXCOORD_0": 3
          },
          "indices": 4,
          "material": 0,
          "mode": 4
        }
      ]
    }
  ],
  "nodes": [
    {
      "children": [
        1
      ],
      "matrix": [
        1.0,
        0.0,
        0.0,
        0.0,
        0.0,
        2.220446049250313e-16,
        -1.0,
        0.0,
        0.0,
        1.0,
        2.220446049250313e-16,
        0.0,
        0.0,
        0.0,
        0.0,
        1.0
      ],
      "name": "Sketchfab_model"
    },
    {
      "children": [
        2
      ],
      "matrix": [
        1.0,
        0.0,
        0.0,
        0.0,
        0.0,
        -4.371139006309477e-08,
        0.999999999999999,
        0.0,
        0.0,
        -0.999999999999999,
        -4.371139006309477e-08,
        0.0,
        0.0,
        0.0,
        0.0,
        1.0
      ],
      "name": "Collada visual scene group"
    },
    {
      "children": [
        3
      ],
      "matrix": [
        56.941021,
        0.0,
        0.0,
        0.0,
        0.0,
        -9e-06,
        -56.941021,
        0.0,
        0.0,
        56.941021,
        -9e-06,
        0.0,
        -7.6e-05,
        2.248192,
        -44.207779,
        1.0
      ],
      "name": "Badguys_Squid_Game_01"
    },
    {
      "mesh": 0,
      "name": "defaultMaterial"
    }
  ],
  "samplers": [
    {
      "magFilter": 9729,
      "minFilter": 9987,
      "wrapS": 10497,
      "wrapT": 10497
    }
  ],
  "scene": 0,
  "scenes": [
    {
      "name": "Sketchfab_Scene",
      "nodes": [
        0
      ]
    }
  ],
  "textures": [
    {
      "sampler": 0,
      "source": 0
    },
    {
      "sampler": 0,
      "source": 1
    },
    {
      "sampler": 0,
      "source": 2
    }
  ]
}
